<svg xmlns="http://www.w3.org/2000/svg" xmlns:xlink="http://www.w3.org/1999/xlink" width="2000" zoomAndPan="magnify" viewBox="0 0 1500 1499.999933" height="2000" preserveAspectRatio="xMidYMid meet" version="1.0"><defs><g/></defs><g fill="#1800ad" fill-opacity="0.4"><g transform="translate(107.222484, 1191.747708)"><g><path d="M 659.65625 -18.875 C 659.65625 -6.289062 622.265625 0 547.484375 0 C 472.710938 0 435.328125 -6.289062 435.328125 -18.875 L 435.328125 -274.296875 L 279.859375 -274.296875 L 279.859375 -18.875 C 279.859375 -6.289062 242.46875 0 167.6875 0 C 92.914062 0 55.53125 -6.289062 55.53125 -18.875 L 55.53125 -755.15625 C 55.53125 -770.707031 92.914062 -778.484375 167.6875 -778.484375 C 242.46875 -778.484375 279.859375 -770.707031 279.859375 -755.15625 L 279.859375 -494.1875 L 435.328125 -494.1875 L 435.328125 -752.9375 C 435.328125 -763.300781 453.835938 -770.707031 490.859375 -775.15625 C 510.109375 -776.632812 528.984375 -777.375 547.484375 -777.375 L 604.125 -775.15625 C 641.144531 -770.707031 659.65625 -763.300781 659.65625 -752.9375 Z M 659.65625 -18.875 "/></g></g></g><g fill="#1800ad" fill-opacity="0.4"><g transform="translate(822.39924, 1191.747708)"><g><path d="M 392.015625 -637.4375 L 392.015625 -450.875 L 579.703125 -450.875 C 593.023438 -450.875 602.648438 -440.140625 608.578125 -418.671875 C 611.535156 -407.566406 613.015625 -396.832031 613.015625 -386.46875 C 613.015625 -376.101562 611.535156 -365.367188 608.578125 -354.265625 C 602.648438 -332.785156 593.023438 -322.046875 579.703125 -322.046875 L 392.015625 -322.046875 L 392.015625 -132.15625 C 392.015625 -118.820312 381.28125 -109.195312 359.8125 -103.28125 C 349.445312 -100.320312 338.710938 -98.84375 327.609375 -98.84375 L 295.40625 -103.28125 C 273.9375 -109.195312 263.203125 -118.820312 263.203125 -132.15625 L 263.203125 -322.046875 L 74.40625 -322.046875 C 61.082031 -322.046875 51.457031 -332.785156 45.53125 -354.265625 C 42.570312 -365.367188 41.09375 -376.101562 41.09375 -386.46875 C 41.09375 -396.832031 42.570312 -407.566406 45.53125 -418.671875 C 51.457031 -440.140625 61.082031 -450.875 74.40625 -450.875 L 263.203125 -450.875 L 263.203125 -637.4375 C 263.203125 -650.769531 273.9375 -660.394531 295.40625 -666.3125 C 305.769531 -669.28125 316.503906 -670.765625 327.609375 -670.765625 L 359.8125 -666.3125 C 381.28125 -660.394531 392.015625 -650.769531 392.015625 -637.4375 Z M 392.015625 -637.4375 "/></g></g></g><g fill="#1800ad" fill-opacity="1"><g transform="translate(58.143748, 1142.668975)"><g><path d="M 659.65625 -18.875 C 659.65625 -6.289062 622.265625 0 547.484375 0 C 472.710938 0 435.328125 -6.289062 435.328125 -18.875 L 435.328125 -274.296875 L 279.859375 -274.296875 L 279.859375 -18.875 C 279.859375 -6.289062 242.46875 0 167.6875 0 C 92.914062 0 55.53125 -6.289062 55.53125 -18.875 L 55.53125 -755.15625 C 55.53125 -770.707031 92.914062 -778.484375 167.6875 -778.484375 C 242.46875 -778.484375 279.859375 -770.707031 279.859375 -755.15625 L 279.859375 -494.1875 L 435.328125 -494.1875 L 435.328125 -752.9375 C 435.328125 -763.300781 453.835938 -770.707031 490.859375 -775.15625 C 510.109375 -776.632812 528.984375 -777.375 547.484375 -777.375 L 604.125 -775.15625 C 641.144531 -770.707031 659.65625 -763.300781 659.65625 -752.9375 Z M 659.65625 -18.875 "/></g></g></g><g fill="#1800ad" fill-opacity="1"><g transform="translate(773.320504, 1142.668975)"><g><path d="M 392.015625 -637.4375 L 392.015625 -450.875 L 579.703125 -450.875 C 593.023438 -450.875 602.648438 -440.140625 608.578125 -418.671875 C 611.535156 -407.566406 613.015625 -396.832031 613.015625 -386.46875 C 613.015625 -376.101562 611.535156 -365.367188 608.578125 -354.265625 C 602.648438 -332.785156 593.023438 -322.046875 579.703125 -322.046875 L 392.015625 -322.046875 L 392.015625 -132.15625 C 392.015625 -118.820312 381.28125 -109.195312 359.8125 -103.28125 C 349.445312 -100.320312 338.710938 -98.84375 327.609375 -98.84375 L 295.40625 -103.28125 C 273.9375 -109.195312 263.203125 -118.820312 263.203125 -132.15625 L 263.203125 -322.046875 L 74.40625 -322.046875 C 61.082031 -322.046875 51.457031 -332.785156 45.53125 -354.265625 C 42.570312 -365.367188 41.09375 -376.101562 41.09375 -386.46875 C 41.09375 -396.832031 42.570312 -407.566406 45.53125 -418.671875 C 51.457031 -440.140625 61.082031 -450.875 74.40625 -450.875 L 263.203125 -450.875 L 263.203125 -637.4375 C 263.203125 -650.769531 273.9375 -660.394531 295.40625 -666.3125 C 305.769531 -669.28125 316.503906 -670.765625 327.609375 -670.765625 L 359.8125 -666.3125 C 381.28125 -660.394531 392.015625 -650.769531 392.015625 -637.4375 Z M 392.015625 -637.4375 "/></g></g></g></svg>